<mxfile host="app.diagrams.net" agent="Mozilla/5.0 (Macintosh; Intel Mac OS X 10_15_7) AppleWebKit/605.1.15 (KHTML, like Gecko) Version/18.0.1 Safari/605.1.15" version="24.8.6">
  <diagram name="第 1 页" id="H4aQDe363Q3FN4pCdWJd">
    <mxGraphModel dx="954" dy="647" grid="1" gridSize="10" guides="1" tooltips="1" connect="1" arrows="1" fold="1" page="1" pageScale="1" pageWidth="827" pageHeight="1169" math="0" shadow="0">
      <root>
        <mxCell id="0" />
        <mxCell id="1" parent="0" />
        <mxCell id="ezdm7JE4SphXt4pjz0XS-2" value="" style="strokeWidth=2;html=1;shape=mxgraph.flowchart.database;whiteSpace=wrap;fontStyle=0;align=center;verticalAlign=bottom;labelPosition=center;verticalLabelPosition=middle;horizontal=1;" parent="1" vertex="1">
          <mxGeometry x="207" y="326" width="90" height="75" as="geometry" />
        </mxCell>
        <mxCell id="ezdm7JE4SphXt4pjz0XS-3" value="Malware&lt;div&gt;Samples&lt;/div&gt;" style="text;html=1;align=center;verticalAlign=middle;resizable=0;points=[];autosize=1;strokeColor=none;fillColor=none;" parent="1" vertex="1">
          <mxGeometry x="217" y="355" width="70" height="40" as="geometry" />
        </mxCell>
        <mxCell id="ezdm7JE4SphXt4pjz0XS-4" value="" style="endArrow=classic;html=1;rounded=0;" parent="1" edge="1">
          <mxGeometry width="50" height="50" relative="1" as="geometry">
            <mxPoint x="251.70999999999998" y="320" as="sourcePoint" />
            <mxPoint x="251.70999999999998" y="250" as="targetPoint" />
          </mxGeometry>
        </mxCell>
        <mxCell id="ezdm7JE4SphXt4pjz0XS-5" value="" style="rounded=0;whiteSpace=wrap;html=1;" parent="1" vertex="1">
          <mxGeometry x="207" y="190" width="90" height="56" as="geometry" />
        </mxCell>
        <mxCell id="ezdm7JE4SphXt4pjz0XS-6" value="Dynamic&lt;div&gt;Analysis&lt;/div&gt;" style="text;html=1;align=center;verticalAlign=middle;resizable=0;points=[];autosize=1;strokeColor=none;fillColor=none;" parent="1" vertex="1">
          <mxGeometry x="217" y="197" width="70" height="40" as="geometry" />
        </mxCell>
        <mxCell id="ezdm7JE4SphXt4pjz0XS-7" value="" style="endArrow=classic;html=1;rounded=0;" parent="1" edge="1">
          <mxGeometry width="50" height="50" relative="1" as="geometry">
            <mxPoint x="300" y="218" as="sourcePoint" />
            <mxPoint x="370" y="217.66" as="targetPoint" />
          </mxGeometry>
        </mxCell>
        <mxCell id="ezdm7JE4SphXt4pjz0XS-13" value="" style="endArrow=classic;html=1;rounded=0;" parent="1" edge="1">
          <mxGeometry width="50" height="50" relative="1" as="geometry">
            <mxPoint x="435.65999999999997" y="250" as="sourcePoint" />
            <mxPoint x="435.65999999999997" y="340.6896551724138" as="targetPoint" />
          </mxGeometry>
        </mxCell>
        <mxCell id="ezdm7JE4SphXt4pjz0XS-17" value="" style="shape=document;whiteSpace=wrap;html=1;boundedLbl=1;" parent="1" vertex="1">
          <mxGeometry x="379" y="343" width="117" height="74" as="geometry" />
        </mxCell>
        <mxCell id="ezdm7JE4SphXt4pjz0XS-18" value="" style="shape=document;whiteSpace=wrap;html=1;boundedLbl=1;" parent="1" vertex="1">
          <mxGeometry x="370" y="350" width="120" height="75" as="geometry" />
        </mxCell>
        <mxCell id="ezdm7JE4SphXt4pjz0XS-19" value="" style="shape=document;whiteSpace=wrap;html=1;boundedLbl=1;labelBorderColor=none;" parent="1" vertex="1">
          <mxGeometry x="364" y="357" width="120" height="70" as="geometry" />
        </mxCell>
        <mxCell id="ezdm7JE4SphXt4pjz0XS-20" value="FSM" style="text;html=1;align=center;verticalAlign=middle;resizable=0;points=[];autosize=1;strokeColor=none;fillColor=none;" parent="1" vertex="1">
          <mxGeometry x="401" y="370" width="50" height="30" as="geometry" />
        </mxCell>
        <mxCell id="ezdm7JE4SphXt4pjz0XS-21" value="" style="shape=document;whiteSpace=wrap;html=1;boundedLbl=1;" parent="1" vertex="1">
          <mxGeometry x="386" y="175" width="117" height="74" as="geometry" />
        </mxCell>
        <mxCell id="ezdm7JE4SphXt4pjz0XS-22" value="" style="shape=document;whiteSpace=wrap;html=1;boundedLbl=1;" parent="1" vertex="1">
          <mxGeometry x="377" y="182" width="120" height="75" as="geometry" />
        </mxCell>
        <mxCell id="ezdm7JE4SphXt4pjz0XS-23" value="" style="shape=document;whiteSpace=wrap;html=1;boundedLbl=1;labelBorderColor=none;" parent="1" vertex="1">
          <mxGeometry x="371" y="189" width="120" height="70" as="geometry" />
        </mxCell>
        <mxCell id="ezdm7JE4SphXt4pjz0XS-24" value="API Call&lt;div&gt;Sequence&lt;/div&gt;" style="text;html=1;align=center;verticalAlign=middle;resizable=0;points=[];autosize=1;strokeColor=none;fillColor=none;" parent="1" vertex="1">
          <mxGeometry x="393" y="197" width="80" height="40" as="geometry" />
        </mxCell>
        <mxCell id="ezdm7JE4SphXt4pjz0XS-25" value="Structural&lt;div&gt;Representation&lt;/div&gt;" style="text;html=1;align=center;verticalAlign=middle;resizable=0;points=[];autosize=1;strokeColor=none;fillColor=none;" parent="1" vertex="1">
          <mxGeometry x="340" y="280" width="100" height="40" as="geometry" />
        </mxCell>
        <mxCell id="ezdm7JE4SphXt4pjz0XS-33" value="" style="endArrow=classic;html=1;rounded=0;" parent="1" edge="1">
          <mxGeometry width="50" height="50" relative="1" as="geometry">
            <mxPoint x="510" y="225" as="sourcePoint" />
            <mxPoint x="570" y="225" as="targetPoint" />
          </mxGeometry>
        </mxCell>
        <mxCell id="ezdm7JE4SphXt4pjz0XS-35" value="&lt;i&gt;feed&lt;/i&gt;" style="text;html=1;align=center;verticalAlign=middle;resizable=0;points=[];autosize=1;strokeColor=none;fillColor=none;" parent="1" vertex="1">
          <mxGeometry x="520" y="195.45999999999995" width="50" height="30" as="geometry" />
        </mxCell>
        <mxCell id="ezdm7JE4SphXt4pjz0XS-37" value="" style="rounded=0;whiteSpace=wrap;html=1;rotation=90;" parent="1" vertex="1">
          <mxGeometry x="549" y="191.73" width="120.76" height="68.5" as="geometry" />
        </mxCell>
        <mxCell id="ezdm7JE4SphXt4pjz0XS-38" value="LLM&lt;div&gt;Encoder&lt;/div&gt;" style="text;html=1;align=center;verticalAlign=middle;resizable=0;points=[];autosize=1;strokeColor=none;fillColor=none;" parent="1" vertex="1">
          <mxGeometry x="574.38" y="204" width="70" height="40" as="geometry" />
        </mxCell>
        <mxCell id="yIGRJzgeX2FqWWyCbdT4-8" value="" style="group" parent="1" vertex="1" connectable="0">
          <mxGeometry x="340" y="147" width="180" height="304" as="geometry" />
        </mxCell>
        <mxCell id="ezdm7JE4SphXt4pjz0XS-27" value="" style="endArrow=none;dashed=1;html=1;rounded=0;" parent="yIGRJzgeX2FqWWyCbdT4-8" edge="1">
          <mxGeometry width="50" height="50" relative="1" as="geometry">
            <mxPoint y="303" as="sourcePoint" />
            <mxPoint as="targetPoint" />
          </mxGeometry>
        </mxCell>
        <mxCell id="ezdm7JE4SphXt4pjz0XS-28" value="" style="endArrow=none;dashed=1;html=1;rounded=0;" parent="yIGRJzgeX2FqWWyCbdT4-8" edge="1">
          <mxGeometry width="50" height="50" relative="1" as="geometry">
            <mxPoint x="180" y="303" as="sourcePoint" />
            <mxPoint x="180" as="targetPoint" />
          </mxGeometry>
        </mxCell>
        <mxCell id="ezdm7JE4SphXt4pjz0XS-31" value="" style="endArrow=none;dashed=1;html=1;rounded=0;" parent="yIGRJzgeX2FqWWyCbdT4-8" edge="1">
          <mxGeometry width="50" height="50" relative="1" as="geometry">
            <mxPoint as="sourcePoint" />
            <mxPoint x="180" y="1" as="targetPoint" />
          </mxGeometry>
        </mxCell>
        <mxCell id="ezdm7JE4SphXt4pjz0XS-32" value="" style="endArrow=none;dashed=1;html=1;rounded=0;" parent="yIGRJzgeX2FqWWyCbdT4-8" edge="1">
          <mxGeometry width="50" height="50" relative="1" as="geometry">
            <mxPoint y="303" as="sourcePoint" />
            <mxPoint x="180" y="304" as="targetPoint" />
          </mxGeometry>
        </mxCell>
        <mxCell id="ezdm7JE4SphXt4pjz0XS-64" value="" style="whiteSpace=wrap;html=1;aspect=fixed;container=0;" parent="1" vertex="1">
          <mxGeometry x="781.7745664739884" y="157.29298701298703" width="27.225433526011564" height="27.225433526011564" as="geometry" />
        </mxCell>
        <mxCell id="ezdm7JE4SphXt4pjz0XS-65" value="" style="whiteSpace=wrap;html=1;aspect=fixed;container=0;" parent="1" vertex="1">
          <mxGeometry x="781.7745664739884" y="184.83194805194805" width="27.225433526011564" height="27.225433526011564" as="geometry" />
        </mxCell>
        <mxCell id="ezdm7JE4SphXt4pjz0XS-66" value="" style="whiteSpace=wrap;html=1;aspect=fixed;container=0;" parent="1" vertex="1">
          <mxGeometry x="781.7745664739884" y="212.3709090909091" width="27.225433526011564" height="27.225433526011564" as="geometry" />
        </mxCell>
        <mxCell id="ezdm7JE4SphXt4pjz0XS-67" value="" style="whiteSpace=wrap;html=1;aspect=fixed;container=0;" parent="1" vertex="1">
          <mxGeometry x="781.7745664739884" y="239.90987012987014" width="27.225433526011564" height="27.225433526011564" as="geometry" />
        </mxCell>
        <mxCell id="ezdm7JE4SphXt4pjz0XS-58" value="" style="whiteSpace=wrap;html=1;aspect=fixed;container=0;" parent="1" vertex="1">
          <mxGeometry x="769.9768786127167" y="168.23292207792207" width="27.225433526011564" height="27.225433526011564" as="geometry" />
        </mxCell>
        <mxCell id="ezdm7JE4SphXt4pjz0XS-59" value="" style="whiteSpace=wrap;html=1;aspect=fixed;container=0;" parent="1" vertex="1">
          <mxGeometry x="769.9768786127167" y="195.77188311688312" width="27.225433526011564" height="27.225433526011564" as="geometry" />
        </mxCell>
        <mxCell id="ezdm7JE4SphXt4pjz0XS-60" value="" style="whiteSpace=wrap;html=1;aspect=fixed;container=0;" parent="1" vertex="1">
          <mxGeometry x="769.9768786127167" y="223.31084415584414" width="27.225433526011564" height="27.225433526011564" as="geometry" />
        </mxCell>
        <mxCell id="ezdm7JE4SphXt4pjz0XS-61" value="" style="whiteSpace=wrap;html=1;aspect=fixed;container=0;" parent="1" vertex="1">
          <mxGeometry x="769.9768786127167" y="250.8498051948052" width="27.225433526011564" height="27.225433526011564" as="geometry" />
        </mxCell>
        <mxCell id="ezdm7JE4SphXt4pjz0XS-52" value="" style="whiteSpace=wrap;html=1;aspect=fixed;container=0;" parent="1" vertex="1">
          <mxGeometry x="756.364161849711" y="178.22155844155844" width="27.225433526011564" height="27.225433526011564" as="geometry" />
        </mxCell>
        <mxCell id="ezdm7JE4SphXt4pjz0XS-53" value="" style="whiteSpace=wrap;html=1;aspect=fixed;container=0;" parent="1" vertex="1">
          <mxGeometry x="756.364161849711" y="205.7605194805195" width="27.225433526011564" height="27.225433526011564" as="geometry" />
        </mxCell>
        <mxCell id="ezdm7JE4SphXt4pjz0XS-54" value="" style="whiteSpace=wrap;html=1;aspect=fixed;container=0;" parent="1" vertex="1">
          <mxGeometry x="756.364161849711" y="233.2994805194805" width="27.225433526011564" height="27.225433526011564" as="geometry" />
        </mxCell>
        <mxCell id="ezdm7JE4SphXt4pjz0XS-55" value="" style="whiteSpace=wrap;html=1;aspect=fixed;container=0;" parent="1" vertex="1">
          <mxGeometry x="756.364161849711" y="260.83844155844156" width="27.225433526011564" height="27.225433526011564" as="geometry" />
        </mxCell>
        <mxCell id="ezdm7JE4SphXt4pjz0XS-154" value="" style="endArrow=classic;html=1;rounded=0;entryX=0.96;entryY=-0.005;entryDx=0;entryDy=0;entryPerimeter=0;" parent="1" target="ezdm7JE4SphXt4pjz0XS-157" edge="1">
          <mxGeometry width="50" height="50" relative="1" as="geometry">
            <mxPoint x="650" y="380" as="sourcePoint" />
            <mxPoint x="740" y="380" as="targetPoint" />
          </mxGeometry>
        </mxCell>
        <mxCell id="ezdm7JE4SphXt4pjz0XS-155" value="" style="endArrow=classic;html=1;rounded=0;entryX=0.955;entryY=1.025;entryDx=0;entryDy=0;entryPerimeter=0;" parent="1" target="yIGRJzgeX2FqWWyCbdT4-54" edge="1">
          <mxGeometry width="50" height="50" relative="1" as="geometry">
            <mxPoint x="650" y="221" as="sourcePoint" />
            <mxPoint x="740" y="221" as="targetPoint" />
          </mxGeometry>
        </mxCell>
        <mxCell id="ezdm7JE4SphXt4pjz0XS-157" value="Structure&lt;div&gt;Embedding&lt;/div&gt;" style="text;html=1;align=center;verticalAlign=middle;resizable=0;points=[];autosize=1;strokeColor=none;fillColor=none;container=0;" parent="1" vertex="1">
          <mxGeometry x="676.3679768786127" y="379.99805194805197" width="80" height="40" as="geometry" />
        </mxCell>
        <mxCell id="ezdm7JE4SphXt4pjz0XS-129" value="" style="whiteSpace=wrap;html=1;aspect=fixed;container=0;" parent="1" vertex="1">
          <mxGeometry x="781.7745664739884" y="300.93909090909085" width="27.225433526011564" height="27.225433526011564" as="geometry" />
        </mxCell>
        <mxCell id="ezdm7JE4SphXt4pjz0XS-130" value="" style="whiteSpace=wrap;html=1;aspect=fixed;container=0;" parent="1" vertex="1">
          <mxGeometry x="781.7745664739884" y="328.478051948052" width="27.225433526011564" height="27.225433526011564" as="geometry" />
        </mxCell>
        <mxCell id="ezdm7JE4SphXt4pjz0XS-131" value="" style="whiteSpace=wrap;html=1;aspect=fixed;container=0;" parent="1" vertex="1">
          <mxGeometry x="781.7745664739884" y="356.017012987013" width="27.225433526011564" height="27.225433526011564" as="geometry" />
        </mxCell>
        <mxCell id="ezdm7JE4SphXt4pjz0XS-132" value="" style="whiteSpace=wrap;html=1;aspect=fixed;container=0;" parent="1" vertex="1">
          <mxGeometry x="781.7745664739884" y="383.555974025974" width="27.225433526011564" height="27.225433526011564" as="geometry" />
        </mxCell>
        <mxCell id="ezdm7JE4SphXt4pjz0XS-135" value="" style="whiteSpace=wrap;html=1;aspect=fixed;container=0;" parent="1" vertex="1">
          <mxGeometry x="769.9768786127167" y="311.8790259740259" width="27.225433526011564" height="27.225433526011564" as="geometry" />
        </mxCell>
        <mxCell id="ezdm7JE4SphXt4pjz0XS-136" value="" style="whiteSpace=wrap;html=1;aspect=fixed;container=0;" parent="1" vertex="1">
          <mxGeometry x="769.9768786127167" y="339.41798701298706" width="27.225433526011564" height="27.225433526011564" as="geometry" />
        </mxCell>
        <mxCell id="ezdm7JE4SphXt4pjz0XS-137" value="" style="whiteSpace=wrap;html=1;aspect=fixed;container=0;" parent="1" vertex="1">
          <mxGeometry x="769.9768786127167" y="366.9569480519481" width="27.225433526011564" height="27.225433526011564" as="geometry" />
        </mxCell>
        <mxCell id="ezdm7JE4SphXt4pjz0XS-138" value="" style="whiteSpace=wrap;html=1;aspect=fixed;container=0;" parent="1" vertex="1">
          <mxGeometry x="769.9768786127167" y="394.4959090909091" width="27.225433526011564" height="27.225433526011564" as="geometry" />
        </mxCell>
        <mxCell id="ezdm7JE4SphXt4pjz0XS-141" value="" style="whiteSpace=wrap;html=1;aspect=fixed;container=0;" parent="1" vertex="1">
          <mxGeometry x="756.364161849711" y="321.8676623376623" width="27.225433526011564" height="27.225433526011564" as="geometry" />
        </mxCell>
        <mxCell id="ezdm7JE4SphXt4pjz0XS-142" value="" style="whiteSpace=wrap;html=1;aspect=fixed;container=0;" parent="1" vertex="1">
          <mxGeometry x="756.364161849711" y="349.4066233766233" width="27.225433526011564" height="27.225433526011564" as="geometry" />
        </mxCell>
        <mxCell id="ezdm7JE4SphXt4pjz0XS-143" value="" style="whiteSpace=wrap;html=1;aspect=fixed;container=0;" parent="1" vertex="1">
          <mxGeometry x="756.364161849711" y="376.94558441558445" width="27.225433526011564" height="27.225433526011564" as="geometry" />
        </mxCell>
        <mxCell id="ezdm7JE4SphXt4pjz0XS-144" value="" style="whiteSpace=wrap;html=1;aspect=fixed;container=0;" parent="1" vertex="1">
          <mxGeometry x="756.364161849711" y="404.48454545454547" width="27.225433526011564" height="27.225433526011564" as="geometry" />
        </mxCell>
        <mxCell id="yIGRJzgeX2FqWWyCbdT4-14" value="&lt;b&gt;&lt;u&gt;&lt;font style=&quot;font-size: 14px;&quot;&gt;Structure-guided Enhancement Module&lt;/font&gt;&lt;/u&gt;&lt;/b&gt;" style="text;html=1;align=center;verticalAlign=middle;resizable=0;points=[];autosize=1;strokeColor=none;fillColor=none;" parent="1" vertex="1">
          <mxGeometry x="833" y="160" width="280" height="30" as="geometry" />
        </mxCell>
        <mxCell id="yIGRJzgeX2FqWWyCbdT4-16" value="" style="rounded=0;whiteSpace=wrap;html=1;" parent="1" vertex="1">
          <mxGeometry x="853" y="219" width="76" height="200" as="geometry" />
        </mxCell>
        <mxCell id="yIGRJzgeX2FqWWyCbdT4-19" value="Guided-&lt;div&gt;attention&lt;div&gt;&lt;div&gt;Mechanism&lt;/div&gt;&lt;/div&gt;&lt;/div&gt;" style="text;html=1;align=center;verticalAlign=middle;resizable=0;points=[];autosize=1;strokeColor=none;fillColor=none;" parent="1" vertex="1">
          <mxGeometry x="851" y="283.55" width="80" height="60" as="geometry" />
        </mxCell>
        <mxCell id="yIGRJzgeX2FqWWyCbdT4-25" value="" style="endArrow=classic;html=1;rounded=0;" parent="1" edge="1">
          <mxGeometry width="50" height="50" relative="1" as="geometry">
            <mxPoint x="814" y="370" as="sourcePoint" />
            <mxPoint x="847" y="370" as="targetPoint" />
          </mxGeometry>
        </mxCell>
        <mxCell id="yIGRJzgeX2FqWWyCbdT4-28" value="" style="ellipse;shape=cloud;whiteSpace=wrap;html=1;" parent="1" vertex="1">
          <mxGeometry x="960" y="257" width="167" height="108.54" as="geometry" />
        </mxCell>
        <mxCell id="yIGRJzgeX2FqWWyCbdT4-29" value="&lt;span style=&quot;font-weight: normal;&quot;&gt;Structure-aware&lt;/span&gt;&lt;div&gt;&lt;span style=&quot;font-weight: normal;&quot;&gt;Latent Space&lt;/span&gt;&lt;/div&gt;" style="text;html=1;align=center;verticalAlign=middle;resizable=0;points=[];autosize=1;strokeColor=none;fillColor=none;fontStyle=1" parent="1" vertex="1">
          <mxGeometry x="988.5" y="291.55" width="110" height="40" as="geometry" />
        </mxCell>
        <mxCell id="yIGRJzgeX2FqWWyCbdT4-31" value="" style="endArrow=classic;html=1;rounded=0;" parent="1" edge="1">
          <mxGeometry width="50" height="50" relative="1" as="geometry">
            <mxPoint x="1140" y="309.33" as="sourcePoint" />
            <mxPoint x="1194.66" y="309.76" as="targetPoint" />
          </mxGeometry>
        </mxCell>
        <mxCell id="yIGRJzgeX2FqWWyCbdT4-32" value="" style="rounded=1;whiteSpace=wrap;html=1;" parent="1" vertex="1">
          <mxGeometry x="1200" y="249" width="160" height="118" as="geometry" />
        </mxCell>
        <mxCell id="yIGRJzgeX2FqWWyCbdT4-33" value="Malware&lt;div&gt;Classification&lt;/div&gt;" style="text;html=1;align=center;verticalAlign=middle;resizable=0;points=[];autosize=1;strokeColor=none;fillColor=none;" parent="1" vertex="1">
          <mxGeometry x="1235" y="258.63" width="90" height="40" as="geometry" />
        </mxCell>
        <mxCell id="yIGRJzgeX2FqWWyCbdT4-34" value="" style="endArrow=none;html=1;rounded=0;" parent="1" edge="1">
          <mxGeometry width="50" height="50" relative="1" as="geometry">
            <mxPoint x="1239.75" y="307.65999999999997" as="sourcePoint" />
            <mxPoint x="1320.25" y="307.65999999999997" as="targetPoint" />
          </mxGeometry>
        </mxCell>
        <mxCell id="yIGRJzgeX2FqWWyCbdT4-35" value="" style="endArrow=none;html=1;rounded=0;" parent="1" edge="1">
          <mxGeometry width="50" height="50" relative="1" as="geometry">
            <mxPoint x="1239.75" y="322.99999999999994" as="sourcePoint" />
            <mxPoint x="1320.25" y="322.99999999999994" as="targetPoint" />
          </mxGeometry>
        </mxCell>
        <mxCell id="yIGRJzgeX2FqWWyCbdT4-36" value="" style="endArrow=none;html=1;rounded=0;" parent="1" edge="1">
          <mxGeometry width="50" height="50" relative="1" as="geometry">
            <mxPoint x="1239.75" y="339.99999999999994" as="sourcePoint" />
            <mxPoint x="1320.25" y="339.99999999999994" as="targetPoint" />
          </mxGeometry>
        </mxCell>
        <mxCell id="yIGRJzgeX2FqWWyCbdT4-38" value="" style="endArrow=none;html=1;rounded=0;" parent="1" edge="1">
          <mxGeometry width="50" height="50" relative="1" as="geometry">
            <mxPoint x="676" y="147" as="sourcePoint" />
            <mxPoint x="1136" y="147" as="targetPoint" />
          </mxGeometry>
        </mxCell>
        <mxCell id="yIGRJzgeX2FqWWyCbdT4-39" value="" style="endArrow=none;html=1;rounded=0;" parent="1" edge="1">
          <mxGeometry width="50" height="50" relative="1" as="geometry">
            <mxPoint x="675" y="449" as="sourcePoint" />
            <mxPoint x="1135" y="449" as="targetPoint" />
          </mxGeometry>
        </mxCell>
        <mxCell id="yIGRJzgeX2FqWWyCbdT4-40" value="" style="endArrow=none;html=1;rounded=0;" parent="1" edge="1">
          <mxGeometry width="50" height="50" relative="1" as="geometry">
            <mxPoint x="1135" y="449" as="sourcePoint" />
            <mxPoint x="1135" y="146" as="targetPoint" />
          </mxGeometry>
        </mxCell>
        <mxCell id="yIGRJzgeX2FqWWyCbdT4-41" value="" style="endArrow=none;html=1;rounded=0;" parent="1" edge="1">
          <mxGeometry width="50" height="50" relative="1" as="geometry">
            <mxPoint x="676" y="450" as="sourcePoint" />
            <mxPoint x="676" y="147" as="targetPoint" />
          </mxGeometry>
        </mxCell>
        <mxCell id="yIGRJzgeX2FqWWyCbdT4-42" value="" style="endArrow=classic;html=1;rounded=0;" parent="1" edge="1">
          <mxGeometry width="50" height="50" relative="1" as="geometry">
            <mxPoint x="510" y="385" as="sourcePoint" />
            <mxPoint x="570" y="385" as="targetPoint" />
          </mxGeometry>
        </mxCell>
        <mxCell id="yIGRJzgeX2FqWWyCbdT4-43" value="" style="rounded=0;whiteSpace=wrap;html=1;rotation=90;" parent="1" vertex="1">
          <mxGeometry x="549" y="350.75" width="120.76" height="68.5" as="geometry" />
        </mxCell>
        <mxCell id="yIGRJzgeX2FqWWyCbdT4-44" value="GNN&lt;div&gt;Encoder&lt;/div&gt;" style="text;html=1;align=center;verticalAlign=middle;resizable=0;points=[];autosize=1;strokeColor=none;fillColor=none;" parent="1" vertex="1">
          <mxGeometry x="574.38" y="365" width="70" height="40" as="geometry" />
        </mxCell>
        <mxCell id="yIGRJzgeX2FqWWyCbdT4-45" value="&lt;i&gt;feed&lt;/i&gt;" style="text;html=1;align=center;verticalAlign=middle;resizable=0;points=[];autosize=1;strokeColor=none;fillColor=none;" parent="1" vertex="1">
          <mxGeometry x="520" y="353.56" width="50" height="30" as="geometry" />
        </mxCell>
        <mxCell id="yIGRJzgeX2FqWWyCbdT4-54" value="Base&lt;div&gt;Embedding&lt;/div&gt;" style="text;html=1;align=center;verticalAlign=middle;resizable=0;points=[];autosize=1;strokeColor=none;fillColor=none;" parent="1" vertex="1">
          <mxGeometry x="676.36" y="180" width="80" height="40" as="geometry" />
        </mxCell>
        <mxCell id="yIGRJzgeX2FqWWyCbdT4-57" value="" style="endArrow=classic;html=1;rounded=0;entryX=-0.019;entryY=0.134;entryDx=0;entryDy=0;entryPerimeter=0;" parent="1" target="yIGRJzgeX2FqWWyCbdT4-16" edge="1">
          <mxGeometry width="50" height="50" relative="1" as="geometry">
            <mxPoint x="814" y="246" as="sourcePoint" />
            <mxPoint x="840" y="246" as="targetPoint" />
          </mxGeometry>
        </mxCell>
        <mxCell id="yIGRJzgeX2FqWWyCbdT4-60" value="" style="endArrow=classic;html=1;rounded=0;" parent="1" edge="1">
          <mxGeometry width="50" height="50" relative="1" as="geometry">
            <mxPoint x="935" y="313.43" as="sourcePoint" />
            <mxPoint x="968" y="313.43" as="targetPoint" />
          </mxGeometry>
        </mxCell>
      </root>
    </mxGraphModel>
  </diagram>
</mxfile>
